# xmcd CD database file
#
# Track frame offsets:
#	150
#	11498
#	26913
#	39960
#	53773
#	70285
#	82443
#	92273
#	100980
#	113120
#	123560
#	136245
#
# Disc length: 1960 seconds
#
# Revision: 0
# Processed by: cddbd v1.5.1PL0 Copyright (c) Steve Scherf et al.
# Submitted via: CDex 1.51
#
DISCID=9d07a60c
DTITLE=Maxine Sullivan - Spring isn't everything
DYEAR=1986
DGENRE=Jazz
TTITLE0=Summer night
TTITLE1=You're getting to be a habit with me
TTITLE2=The more i see you
TTITLE3=Cheerful little earful
TTITLE4=I only have eyes for you
TTITLE5=Lulu's back in town
TTITLE6=Devil may care
TTITLE7=You must have been a beautiful baby
TTITLE8=Spring isn't everything
TTITLE9=September in the rain
TTITLE10=I'll string along with you
TTITLE11=There will never be another you
EXTD=YEAR: 1986
EXTT0=
EXTT1=
EXTT2=
EXTT3=
EXTT4=
EXTT5=
EXTT6=
EXTT7=
EXTT8=
EXTT9=
EXTT10=
EXTT11=
PLAYORDER=
